HIERARCHY
ROOT Hips
{
    OFFSET 0.000000 0.000000 0.000000
    CHANNELS 6 Xposition Yposition Zposition Zrotation Xrotation Yrotation
    JOINT Spine
    {
        OFFSET -0.000000 0.081317 0.000000
        CHANNELS 3 Zrotation Xrotation Yrotation
        JOINT Spine1
        {
            OFFSET -0.000000 0.225200 0.000000
            CHANNELS 3 Zrotation Xrotation Yrotation
            JOINT Neck
            {
                OFFSET -0.000000 0.224275 0.020389
                CHANNELS 3 Zrotation Xrotation Yrotation
                JOINT Head
                {
                    OFFSET -0.000000 0.138833 -0.019833
                    CHANNELS 3 Zrotation Xrotation Yrotation
                    End Site
                    {
                        OFFSET -0.000000 0.198333 0.000000
                    }
                }
            }
            JOINT LeftShoulder
            {
                OFFSET 0.039732 0.208237 -0.000812
                CHANNELS 3 Zrotation Xrotation Yrotation
                JOINT LeftArm
                {
                    OFFSET 0.110955 0.000000 0.000000
                    CHANNELS 3 Zrotation Xrotation Yrotation
                    JOINT LeftForeArm
                    {
                        OFFSET 0.324523 0.000000 0.000000
                        CHANNELS 3 Zrotation Xrotation Yrotation
                        JOINT LeftHand
                        {
                            OFFSET 0.302601 0.000000 0.000000
                            CHANNELS 3 Zrotation Xrotation Yrotation
                            End Site
                            {
                                OFFSET 0.148750 0.000000 0.000000
                            }
                        }
                    }
                }
            }
            JOINT RightShoulder
            {
                OFFSET -0.039598 0.208237 -0.000812
                CHANNELS 3 Zrotation Xrotation Yrotation
                JOINT RightArm
                {
                    OFFSET -0.110955 0.000000 0.000000
                    CHANNELS 3 Zrotation Xrotation Yrotation
                    JOINT RightForeArm
                    {
                        OFFSET -0.324523 0.000000 0.000000
                        CHANNELS 3 Zrotation Xrotation Yrotation
                        JOINT RightHand
                        {
                            OFFSET -0.302601 0.000000 0.000000
                            CHANNELS 3 Zrotation Xrotation Yrotation
                            End Site
                            {
                                OFFSET -0.148750 0.000000 0.000000
                            }
                        }
                    }
                }
            }
        }
    }
    JOINT LeftUpLeg
    {
        OFFSET 0.099167 0.000000 0.000000
        CHANNELS 3 Zrotation Xrotation Yrotation
        JOINT LeftLeg
        {
            OFFSET -0.000000 -0.380753 0.000000
            CHANNELS 3 Zrotation Xrotation Yrotation
            JOINT LeftFoot
            {
                OFFSET -0.000000 -0.440093 0.000000
                CHANNELS 3 Zrotation Xrotation Yrotation
                JOINT LeftToeBase
                {
                    OFFSET -0.000000 -0.064458 0.148750
                    CHANNELS 3 Zrotation Xrotation Yrotation
                    End Site
                    {
                        OFFSET -0.000000 0.000000 0.039667
                    }
                }
            }
        }
    }
    JOINT RightUpLeg
    {
        OFFSET -0.099167 0.000000 0.000000
        CHANNELS 3 Zrotation Xrotation Yrotation
        JOINT RightLeg
        {
            OFFSET -0.000000 -0.380753 0.000000
            CHANNELS 3 Zrotation Xrotation Yrotation
            JOINT RightFoot
            {
                OFFSET -0.000000 -0.440093 0.000000
                CHANNELS 3 Zrotation Xrotation Yrotation
                JOINT RightToeBase
                {
                    OFFSET -0.000000 -0.064458 0.148750
                    CHANNELS 3 Zrotation Xrotation Yrotation
                    End Site
                    {
                        OFFSET -0.000000 0.000000 0.039667
                    }
                }
            }
        }
    }
}
MOTION
Frames:    10
Frame Time:    0.010000
-0.609736    0.824228    -0.296936    -6.376279    -2.252467    82.012703    3.019915    -20.260719    -3.177276    3.977882    43.700504    -2.823603    10.298134    42.770332    -20.753681    22.380844    -31.320766    -9.666226    -9.966259    -0.722283    -12.161420    -55.307014    -48.427010    -16.212618    16.404396    -3.324266    -112.028305    60.922699    10.092812    -19.162996    3.811403    -10.733967    13.017103    35.769882    18.562250    5.683096    -126.844505    -41.216824    11.283454    -12.394612    -21.281399    -5.487879    23.862669    -28.629366    41.690907    15.331747    49.267075    19.438189    -10.043016    4.191561    -44.469383    0.000000    0.000000    0.000000    -22.787308    -33.217255    -24.393913    9.044600    45.768501    -3.977734    -2.278893    9.093539    -4.603344    0.000000    0.000000    0.000000    
-0.610034    0.826747    -0.297386    -6.369347    -2.300722    82.442711    3.081168    -20.232277    -3.005619    3.940644    43.571217    -2.749399    10.091904    42.897182    -20.871902    23.069242    -31.048536    -9.602777    -10.120886    -0.728828    -12.292659    -54.954521    -48.230709    -16.558033    16.453028    -3.362408    -111.848900    60.874607    9.964016    -19.316784    3.683679    -10.537568    12.946357    36.516365    18.333117    5.394121    -126.717674    -41.338955    11.349957    -12.269853    -21.413467    -5.047359    23.630877    -28.506660    41.420929    14.860591    48.688129    19.770765    -9.564897    4.578432    -44.625404    0.000000    0.000000    0.000000    -22.591045    -32.804817    -24.126301    9.067252    45.109562    -4.191281    -2.098206    9.555549    -4.958844    0.000000    0.000000    0.000000    
-0.610425    0.828777    -0.297801    -6.377826    -2.332274    82.885094    3.218364    -20.241131    -2.784168    3.611613    43.537498    -2.550797    10.288866    42.971996    -21.114838    23.648529    -30.919668    -9.581913    -10.022713    -0.850671    -12.377729    -54.728645    -47.878685    -16.905449    16.552870    -3.513124    -111.710854    60.549202    10.005508    -19.272253    3.770146    -10.247767    12.746464    37.053333    18.132406    5.339940    -126.548286    -41.483112    11.428323    -12.453792    -21.517517    -5.004794    23.709856    -28.634459    41.411282    14.736625    48.459240    22.467455    -8.690361    6.144771    -48.083618    0.000000    0.000000    0.000000    -22.465284    -32.471775    -23.993837    9.016748    44.628181    -4.347964    -2.483476    10.114926    -4.969378    0.000000    0.000000    0.000000    
-0.610806    0.830327    -0.298209    -6.373972    -2.361074    83.345406    3.290760    -20.271837    -2.582670    3.477930    43.520638    -2.433747    10.161264    43.014149    -21.261326    24.368496    -30.538792    -9.551176    -10.092936    -0.917175    -12.513676    -54.443169    -47.606655    -17.362150    16.690866    -3.657626    -111.511749    60.591080    9.792505    -19.572929    3.877789    -10.130988    12.754963    37.557419    18.052589    4.944981    -126.478653    -41.503574    11.381358    -12.482027    -21.645151    -5.210462    23.148954    -28.467615    41.087360    14.400064    47.773216    18.840096    -8.914700    4.806842    -43.669754    0.000000    0.000000    0.000000    -22.409754    -32.176365    -23.863321    9.057248    44.210804    -4.572344    -2.353107    10.439509    -5.258493    0.000000    0.000000    0.000000    
-0.611230    0.831349    -0.298645    -6.358818    -2.368883    83.822876    3.381118    -20.289177    -2.371203    3.269741    43.521568    -2.285486    10.160816    43.056023    -21.446587    25.005787    -30.268858    -9.539388    -10.106345    -1.160514    -12.602303    -54.129841    -47.225128    -17.670084    16.767744    -3.744883    -111.339668    60.260246    9.808624    -19.590607    3.849851    -9.711064    12.494432    38.054340    17.669302    5.063570    -126.192261    -41.762344    11.609823    -12.478807    -21.651237    -5.321212    22.938236    -28.543413    40.906029    14.375314    47.516281    18.674509    -8.717312    4.982227    -43.979084    0.000000    0.000000    0.000000    -22.446627    -31.920963    -23.796017    9.159737    43.919815    -4.842841    -2.304324    10.645176    -5.551810    0.000000    0.000000    0.000000    
-0.611682    0.831845    -0.299049    -6.357704    -2.368800    84.305008    3.456142    -20.367453    -2.138859    3.070559    43.560238    -2.133867    10.490397    42.916359    -21.775959    25.127581    -29.862425    -9.849757    -10.086884    -1.144754    -12.836699    -53.944393    -47.246132    -18.229456    16.746180    -3.665062    -111.244339    60.310871    9.702734    -19.748743    3.903054    -9.464233    12.496563    38.630119    17.400673    4.729650    -126.039444    -41.932632    11.672961    -12.532545    -21.817968    -5.276111    22.829268    -28.787832    40.804005    14.539848    47.431984    19.661690    -8.343536    5.621486    -45.595375    0.000000    0.000000    0.000000    -22.557686    -31.744261    -23.781038    9.308727    43.794849    -5.158342    -2.229097    10.715044    -5.847724    0.000000    0.000000    0.000000    
-0.612193    0.831805    -0.299446    -6.331805    -2.361026    84.788765    3.525057    -20.388092    -1.899733    2.906914    43.601799    -1.994026    10.611572    42.849846    -22.022062    25.591740    -29.586992    -9.957266    -10.131640    -1.386915    -12.977009    -53.623333    -46.939655    -18.610832    16.815449    -3.750588    -111.105904    60.240334    9.600153    -19.874746    3.943782    -9.448305    12.607034    39.312149    17.336899    4.064404    -126.045410    -41.969608    11.568709    -12.606554    -22.068419    -5.175230    22.974577    -29.164186    40.814846    14.721158    47.690781    21.839495    -7.672419    6.719946    -48.787907    0.000000    0.000000    0.000000    -22.727200    -31.602943    -23.783537    9.453928    43.805397    -5.531353    -2.121327    10.644513    -5.995346    0.000000    0.000000    0.000000    
-0.612762    0.831249    -0.299865    -6.285543    -2.360855    85.254631    3.656322    -20.377636    -1.632392    2.668710    43.638760    -1.818075    10.483723    42.770683    -22.157545    26.324663    -29.137405    -9.953870    -10.165574    -1.453917    -13.198446    -53.351013    -46.702751    -19.108021    16.914604    -4.022270    -110.970337    59.963760    9.521223    -19.811071    4.024397    -9.219172    12.547711    39.739128    17.150082    3.788988    -125.930359    -42.118679    11.610704    -12.698235    -22.198505    -5.430629    22.875404    -29.408453    40.698662    14.982321    47.820419    21.399805    -7.512353    6.608281    -49.348671    0.000000    0.000000    0.000000    -22.938801    -31.508207    -23.857595    9.603674    43.946507    -5.843347    -2.071634    10.497517    -6.162197    0.000000    0.000000    0.000000    
-0.613399    0.830074    -0.300268    -6.258779    -2.332548    85.719742    3.730929    -20.397318    -1.378606    2.483800    43.705261    -1.665628    10.583718    42.706295    -22.387957    26.797613    -28.888939    -10.046468    -10.237010    -1.580518    -13.404815    -53.049534    -46.498344    -19.580441    16.950140    -4.207253    -110.879814    59.940208    9.370127    -19.785339    4.138210    -9.165112    12.677679    40.219460    17.083529    3.189549    -125.930618    -42.178394    11.515036    -12.953953    -22.421070    -5.647258    22.486477    -29.613497    40.496201    15.219495    47.782169    18.526926    -7.435103    5.253235    -46.629078    0.000000    0.000000    0.000000    -23.245411    -31.509377    -24.025955    9.737124    44.257084    -6.079769    -1.982375    10.221246    -6.320812    0.000000    0.000000    0.000000    
-0.614052    0.828312    -0.300700    -6.231561    -2.287248    86.172928    3.844197    -20.400303    -1.104920    2.260989    43.813862    -1.495329    10.161272    42.735348    -22.403715    28.002132    -28.621721    -9.763634    -10.412328    -1.733143    -13.554567    -52.699947    -46.322880    -20.145502    16.902843    -4.313171    -110.820175    59.998138    9.140175    -19.803288    4.263464    -8.822936    12.510935    40.409985    16.848841    3.146012    -125.767105    -42.297802    11.662387    -12.982462    -22.359400    -5.705320    22.345623    -30.038891    40.420288    15.522603    48.181557    18.143860    -7.676777    4.288394    -46.388817    0.000000    0.000000    0.000000    -23.640083    -31.573500    -24.321636    9.827809    44.768471    -6.270557    -1.949706    9.747178    -6.364651    0.000000    0.000000    0.000000    
